<?xml version="1.0" standalone="yes"?>
<svg xmlns="http://www.w3.org/2000/svg" width="640" height="640">
<path style="fill:#0d151f; stroke:none;" d="M0 0L0 640L640 640L640 0L0 0z"/>
<path style="fill:#3c6355; stroke:none;" d="M157 213L158 214L157 213z"/>
<path style="fill:#acaeb2; stroke:none;" d="M158 213L158 214L209 215L194 213L158 213M263 214L263 215L314 214L299 213L263 214z"/>
<path style="fill:#3c6355; stroke:none;" d="M314 213L315 214L314 213M344 213L345 214L344 213z"/>
<path style="fill:#01ea65; stroke:none;" d="M345.318 214.028L343 226L343 262L343 379L343 411L343.603 424.527L353 426.004L380 426L464 426L499.682 425.972L502 414L502 378L502 261L502 229L501.397 215.473L492 213.996L465 214L381 214L345.318 214.028z"/>
<path style="fill:#3c6355; stroke:none;" d="M346 213L346 214L499 214C487.068 208.993 465.991 213 453 213L346 213M500 213L501 214L500 213z"/>
<path style="fill:#acaeb2; stroke:none;" d="M156 214L157 215L156 214z"/>
<path style="fill:#ffffff; stroke:none;" d="M209 346L263 346L263 403C263 408.088 260.763 420.275 264.028 424.397C266.261 427.216 272.849 426 276 426L306 426C310.55 425.998 315.422 426.687 315.941 420.981C320.319 372.877 316 322.327 316 274L316 233C316 228.347 317.486 220.564 315.397 216.318C313.746 212.964 308.037 214 305 214L275 214C271.811 214 265.339 212.791 263.603 216.318C260.87 221.873 263 232.865 263 239L263 294L209 294L209 237C209 231.912 211.237 219.725 207.972 215.603C205.739 212.784 199.151 214 196 214L166 214C161.45 214.002 156.578 213.313 156.059 219.019C151.681 267.123 156 317.673 156 366L156 407C156 411.653 154.514 419.436 156.603 423.682C158.254 427.036 163.963 426 167 426L197 426C200.189 426 206.661 427.209 208.397 423.682C211.13 418.127 209 407.135 209 401L209 346z"/>
<path style="fill:#acaeb2; stroke:none;" d="M315 214L316 215L315 214z"/>
<path style="fill:#3c6355; stroke:none;" d="M209 215L209 293L210 293L210 239L209 215M262 215L262 293L263 293L263 239L262 215M342 215L342 425L343 425L343 277L343 235L342 215M502 215L502 425L503 425L503 277L503 235L502 215z"/>
<path style="fill:#acaeb2; stroke:none;" d="M209 293L209 294L263 294L245 293L209 293M209 346L209 347L263 347L245 346L209 346z"/>
<path style="fill:#3c6355; stroke:none;" d="M209 347L209 425L210 425L210 371L209 347M262 347L262 425L263 425L263 371L262 347z"/>
<path style="fill:#acaeb2; stroke:none;" d="M156 425L157 426L156 425M208 425L209 426L208 425M263 425L264 426L263 425M315 425L316 426L315 425z"/>
<path style="fill:#3c6355; stroke:none;" d="M157 426L158 427L157 426z"/>
<path style="fill:#acaeb2; stroke:none;" d="M158 426L158 427L208 427C195.11 421.591 172.049 426 158 426M264 426L264 427L314 427C301.11 421.591 278.049 426 264 426z"/>
<path style="fill:#3c6355; stroke:none;" d="M314 426L315 427L314 426M344 426L345 427L344 426M346 426L346 427L499 427C487.068 421.993 465.991 426 453 426L346 426M500 426L501 427L500 426z"/>
</svg>
