<?xml version="1.0" standalone="no"?>
<!DOCTYPE svg PUBLIC "-//W3C//DTD SVG 20010904//EN"
 "http://www.w3.org/TR/2001/REC-SVG-20010904/DTD/svg10.dtd">
<svg version="1.0" xmlns="http://www.w3.org/2000/svg"
 width="2046.000000pt" height="2046.000000pt" viewBox="0 0 2046.000000 2046.000000"
 preserveAspectRatio="xMidYMid meet">
<metadata>
Created by potrace 1.16, written by Peter Selinger 2001-2019
</metadata>
<g transform="translate(0.000000,2046.000000) scale(0.100000,-0.100000)"
fill="#000000" stroke="none">
<path d="M3979 12165 c-450 -62 -886 -304 -1162 -647 -101 -126 -175 -242
-235 -368 -396 -834 -117 -1825 657 -2325 98 -63 297 -158 412 -195 51 -17
149 -43 218 -57 114 -24 147 -27 341 -27 263 -1 368 14 590 86 102 33 278 114
375 173 393 239 693 644 810 1094 69 262 76 581 19 846 -41 188 -157 468 -254
611 -262 387 -643 658 -1078 768 -210 54 -483 70 -693 41z m771 -828 c155 -27
224 -47 316 -92 120 -58 184 -116 230 -210 32 -65 37 -86 41 -167 6 -102 -14
-182 -61 -256 -56 -87 -169 -173 -281 -214 -36 -12 -65 -25 -65 -28 0 -3 28
-16 63 -29 235 -89 347 -234 347 -445 0 -241 -131 -394 -405 -475 -132 -39
-256 -52 -572 -58 l-303 -6 0 227 0 226 345 0 345 0 0 165 0 165 -345 0 -345
0 2 228 3 227 378 3 377 2 -2 173 -3 172 -575 0 -575 0 -3 -792 -2 -793 -225
0 -225 0 0 993 c0 547 3 997 8 1001 4 4 331 6 727 3 579 -4 737 -8 805 -20z"/>
<path d="M15980 10410 l0 -1360 285 0 285 0 2 717 3 717 34 23 c69 46 165 68
296 67 137 0 182 -13 252 -70 24 -20 53 -54 65 -77 47 -93 48 -105 48 -760 l0
-617 288 2 287 3 3 615 c4 805 -4 905 -84 1069 -66 135 -193 232 -369 283 -71
20 -102 23 -265 23 -172 0 -192 -2 -285 -28 -55 -15 -136 -43 -180 -62 -43
-19 -83 -31 -87 -27 -5 5 -7 196 -6 425 l3 417 -287 0 -288 0 0 -1360z"/>
<path d="M13537 11733 c-4 -3 -7 -609 -7 -1345 l0 -1338 285 0 285 0 0 1345 0
1345 -278 0 c-153 0 -282 -3 -285 -7z"/>
<path d="M6820 11613 c0 -5 0 -582 0 -1283 l-1 -1275 311 -3 310 -2 0 510 0
510 475 0 475 0 0 -510 0 -510 310 0 310 0 0 1285 0 1285 -310 0 -310 0 0
-520 0 -520 -475 0 -475 0 0 520 0 520 -310 0 c-170 0 -310 -3 -310 -7z"/>
<path d="M14669 11530 c-1 -5 -3 -14 -4 -20 -1 -5 -3 -122 -4 -260 l-1 -250
-140 0 -140 0 0 -220 0 -219 139 -3 140 -3 4 -550 c4 -515 6 -554 25 -620 26
-91 44 -131 81 -182 74 -102 173 -168 308 -205 109 -29 387 -32 478 -4 87 27
132 52 139 78 3 13 6 121 6 242 0 171 -3 217 -12 213 -112 -49 -150 -61 -218
-64 -95 -6 -153 20 -184 82 -20 39 -21 55 -21 525 l0 485 215 5 215 5 0 215 0
215 -215 5 -215 5 -3 268 -2 267 -295 0 c-189 0 -295 -4 -296 -10z"/>
<path d="M10055 11053 c-89 -12 -202 -49 -295 -94 -90 -45 -117 -64 -196 -143
-137 -137 -208 -271 -256 -486 -20 -93 -23 -131 -23 -325 0 -209 2 -225 28
-320 96 -347 331 -581 667 -664 242 -60 626 -33 905 64 l90 31 3 248 c2 234 1
248 -15 241 -76 -32 -313 -108 -377 -120 -111 -21 -273 -19 -368 5 -137 34
-217 87 -280 184 -30 46 -78 165 -78 192 0 2 291 4 647 4 l646 0 -6 158 c-11
260 -59 462 -150 637 -57 108 -192 246 -292 297 -88 45 -174 74 -256 88 -61 9
-330 12 -394 3z m274 -438 c120 -29 192 -109 231 -259 33 -130 74 -116 -340
-116 -416 0 -377 -14 -335 118 68 214 229 307 444 257z"/>
<path d="M12132 11049 c-188 -16 -406 -71 -524 -130 l-58 -29 0 -250 c0 -138
2 -250 5 -250 3 0 29 16 58 35 29 19 92 51 139 70 303 124 616 120 756 -8 51
-48 75 -91 91 -165 13 -62 15 -192 2 -192 -4 0 -38 14 -75 30 -157 71 -375
106 -559 90 -213 -19 -323 -64 -438 -180 -66 -66 -81 -88 -107 -156 -42 -110
-56 -225 -43 -348 34 -304 198 -473 531 -549 83 -19 126 -21 340 -22 261 0
358 9 523 50 186 47 301 125 360 244 l32 66 3 570 c3 637 2 653 -64 785 -77
154 -277 275 -538 325 -101 20 -299 26 -434 14z m368 -1189 c30 -6 68 -16 83
-22 l28 -11 -3 -168 c-3 -191 -11 -213 -84 -237 -65 -22 -260 -35 -333 -22
-182 32 -281 162 -237 312 25 86 99 139 217 156 79 12 255 7 329 -8z"/>
</g>
</svg>
