<?xml version="1.0" standalone="yes"?>
<svg xmlns="http://www.w3.org/2000/svg" width="512" height="512">
<path style="fill:#ffffff; stroke:none;" d="M0 0L0 512L512 512L512 0L0 0z"/>
<path style="fill:#e5332d; stroke:none;" d="M457 191L457 198L463 198L463 218L469 218L469 198L476 198L476 191L457 191M478 191L478 218L483 218L483 199L484 199L487 218L492 218L494 202L495 202L495 218L500 218L500 191L492 191L490 206C486.559 197.898 488.588 191.038 478 191z"/>
<path style="fill:#a7948e; stroke:none;" d="M486 192L487 193L486 192z"/>
<path style="fill:#e5332d; stroke:none;" d="M378 215L378 216L386 217C380.762 230.504 378.667 235.18 392 244L397 228L401 234L402 234L399 202L378 215z"/>
<path style="fill:#a7948e; stroke:none;" d="M388 208L389 209L388 208z"/>
<path style="fill:#03a0d7; stroke:none;" d="M65 213C73.0062 231.447 70 252.996 70 273C70 284.157 70.8685 294.106 65 304L73 304L73 214L65 213M191 213C197.291 225.364 196 237.203 196 251C196 269.463 198.384 288.089 191 305L200 304L200 214L191 213M76 214L76 304L85 305C78.9145 292.169 79.9707 280.24 80 266C80.0123 260.023 83.133 251.934 90.8912 256.183C95.2733 258.583 94.8563 263.728 95.4244 268C97.0132 279.948 95 292.005 95 304L99 304C99 289.948 101.208 273.802 98.5316 260C96.5342 249.701 88.1334 248.737 80 253L80 214L76 214M203 214L203 304L212 305C207.077 295.936 206 290.428 206 280L207 280C210.147 287.519 216.032 303.308 225 304L206.638 271L206 251L207 214L203 214M125 219C122.804 224.166 126.097 227.692 129 232C131.979 227.353 128.341 222.558 125 219z"/>
<path style="fill:#191717; stroke:none;" d="M241 222L241 305L256 305L256 261L257 261L269.576 292L275.638 303.972L290 305L290 222L275 222L275 266L261.424 235L255.362 223.028L241 222M406 222L406 242L422 242L422 305L438 305L438 242L454 242L454 222L406 222M297 223L297 305L339 305L339 287L312 287L312 270L337 270L337 253L312 253L312 240L339 240L339 223L297 223M349 223C351.982 235.583 362.959 249.136 363.292 262C363.63 275.024 351.197 292.594 347 305C351.53 305 359.676 306.566 363.581 303.972C369.146 300.275 371.979 285.2 374 279C376.751 284.883 379.44 301.48 385.418 304.397C389.455 306.366 396.574 305 401 305L385.622 264L390.593 244.039L379 234L375 248L364.581 223.603L349 223z"/>
<path style="fill:#03a0d7; stroke:none;" d="M9 225L8 245L9 245C12.416 231.83 17.0915 231 30 231C30 252.773 36.1607 285.282 24 304L34 304L34 226L9 225z"/>
<path style="fill:#a7948e; stroke:none;" d="M55 225L56 226L55 225z"/>
<path style="fill:#03a0d7; stroke:none;" d="M37 226L37 304L47 305C37.0798 282.565 41 255.543 41 231C52.8225 231 59.2992 231.841 61 245L62 245L62 225L37 226z"/>
<path style="fill:#a7948e; stroke:none;" d="M129 225L130 226L129 225z"/>
<path style="fill:#03a0d7; stroke:none;" d="M120 227L124 239L126 239L122 227L120 227z"/>
<path style="fill:#a7948e; stroke:none;" d="M119 228L120 229L119 228M55 231L56 232L55 231M261 235L262 236L261 235M378 236L379 237L378 236M371 239L372 240L371 239M377 239L378 240L377 239M85 250L86 251L85 250z"/>
<path style="fill:#03a0d7; stroke:none;" d="M141 250C149.129 266.058 148.456 288.862 141 305L149 304L149 251L141 250z"/>
<path style="fill:#a7948e; stroke:none;" d="M144 250L145 251L144 250z"/>
<path style="fill:#03a0d7; stroke:none;" d="M156 254L153 251L153 304L161 304C154.144 292.453 155.451 278.117 156.019 265C156.232 260.096 161.044 253.026 166.945 255.241C171.92 257.108 171.978 263.646 171.999 268C172.058 279.999 172 292 172 304L175 304C175 289.782 178.373 270.662 174.427 257.001C171.662 247.428 162.332 250.022 156 254M215 250C219.085 260.083 211.228 261.104 210.542 270C210.233 274.004 214.082 278.717 216.011 282C221.996 292.191 224.979 302.094 237 305C232.079 296.405 224.906 288.859 219.85 280C218.26 277.216 215.106 273.402 215.637 270C216.778 262.702 227.43 255.008 233 251L215 250M119 251C119 265.559 113.293 295.02 126 305C119.292 288.534 122 268.497 122 251L119 251M125 251C125 265.989 124.331 281.103 126.104 296C126.966 303.237 133.945 307.721 138 300C131.376 301.088 129.331 295.939 129.04 290C128.405 277.063 129 263.953 129 251L125 251z"/>
<path style="fill:#a7948e; stroke:none;" d="M149 251L149 304L150 304L150 268L149 251z"/>
<path style="fill:#03a0d7; stroke:none;" d="M175 251C182.192 265.307 178 288.178 178 304L188 305C185.903 301.248 182.809 298.481 182.189 294C180.533 282.038 187.666 257.951 175 251M99 252C104.403 268.24 102 286.951 102 304L111 305C104.733 293.458 105 284.068 105 271C105 263.681 106.276 256.046 99 252z"/>
<path style="fill:#a7948e; stroke:none;" d="M269 254L270 255L269 254M93 257L94 258L93 257M386 257L387 258L386 257M101 258L102 259L101 258M218 264L219 265L218 264M258 265L259 266L258 265M362 266L363 267L362 266M386 267L387 268L386 267M95 268L96 269L95 268M360 271L361 272L360 271M261 272L262 273L261 272M388 272L389 273L388 272M373 280L374 281L373 280M376 284L377 285L376 284M312 286L312 287L339 287L312 286M95.3333 287.667L95.6667 288.333L95.3333 287.667M219 287L220 288L219 287M339 287L339 305L340 305L339 287M224 288L225 289L224 288M125 289L126 290L125 289M122 290L123 291L122 290M269 291L270 292L269 291M379 292L380 293L379 292M349 298L350 299L349 298M382 300L383 301L382 300M82 301L83 302L82 301M142 302L143 303L142 302M23 303L23 305L25 305L23 303M347 303L348 304L347 303M65 304L66 305L65 304M83 304L84 305L83 304M160 304L161 305L160 304M186 304L187 305L186 304M210 304L211 305L210 304M401 304L402 305L401 304z"/>
</svg>
